<svg width="84" height="70" viewBox="0 0 84 70" fill="none" xmlns="http://www.w3.org/2000/svg">
    <path fill-rule="evenodd" clip-rule="evenodd" d="M1.39 46.048a4.088 4.088 0 0 1-.439.325v.145l.11.1h.002c.141.128.28.254.413.387l11.803 11.86.755.718 15.847-15.917V70H83.09V26.178H47.325l-.127-.215L58.06 15.071 45.035 1.994l-10.96 11.014c-1.276-4.427-5.48-7.337-10.05-6.956a9.253 9.253 0 0 0-5.474 2.278 9.79 9.79 0 0 0-3.403 7.964 9.615 9.615 0 0 0-6.755 2.255 9.719 9.719 0 0 0-2.25 12.046 9.729 9.729 0 0 0 5.872 4.724l-.143.166c-.098.114-.18.212-.272.303-3.396 3.42-6.8 6.84-10.21 10.26zm49.788-30.977L37.766 28.548l-5.97-6.022L45.202 9.049l5.976 6.022zm-37.242 37.43L27.371 39l-5.976-6c-2.965 2.984-5.954 5.986-8.938 8.983l-.009.01-.013.012-.003.004-4.478 4.498 5.982 5.993zm11.886-31.07c-.328.311-.651.62-.966.927v-.006c-.397-.38-.806-.754-1.216-1.128-.922-.842-1.85-1.69-2.66-2.64a4.734 4.734 0 0 1 .634-6.527 4.783 4.783 0 0 1 6.555.18 4.84 4.84 0 0 1 .258 6.585c-.835.919-1.734 1.776-2.605 2.608zm-4.594 4.492-.003-.003.003-.003v.006zm-1.027-1.08v-.001c-.821-.872-1.663-1.766-2.573-2.583a4.725 4.725 0 0 0-6.53.348 4.851 4.851 0 0 0-.046 6.637 4.697 4.697 0 0 0 6.519.452c.909-.809 1.735-1.707 2.555-2.597.365-.398.73-.793 1.1-1.18-.34-.35-.681-.711-1.025-1.077zm8 1.288 6 6.017-3.23 3.246c-1.535-1.555-3.126-3.143-4.696-4.71l-1.303-1.3 3.23-3.253z" fill="#EE2737"/>
    <path d="M66.68 0v2.625h-2.624V0h2.625zM74.238 9.042V6.125h3.243v2.894h3.2v2.94h-3.182v2.916h-3.243v-2.883h-3.2v-2.95h3.182zM64.056 21v-2.625h2.625V21h-2.625z" fill="#EE2737"/>
    <path d="M49.682 62.125c0-.34-.05-.68-.05-1.014V44.4h-5.7c3.54-4.103 6.92-6.34 10.299-10.275l.2.035v27.948l-4.749.017zM57.93 62.125v-28h4.792v16.742h5.709c-.302.374-.47.576-.654.811-3.047 3.513-6.1 6.192-9.147 9.705-.19.232-.367.474-.531.725l-.168.017z" fill="#FDF6EC"/>
</svg>
