<svg width="25" height="24" viewBox="0 0 25 24" fill="none" xmlns="http://www.w3.org/2000/svg">
    <path d="M17.443 8.586h-6.148c-.787 0-1.426.81-1.426 1.809v7.796c0 1 .639 1.809 1.426 1.809h6.148c.788 0 1.426-.81 1.426-1.809v-7.796c0-1-.638-1.81-1.426-1.81z" stroke="#2F3043" stroke-width="2" stroke-linecap="round" stroke-linejoin="round"/>
    <path d="M8.888 15.424H6.757c-.398 0-.78-.201-1.06-.56-.281-.357-.44-.843-.44-1.349V5.91a2.357 2.357 0 0 1 .116-.74 1.99 1.99 0 0 1 .332-.625c.142-.178.311-.318.497-.411.185-.094.384-.139.583-.132h5.974c.397 0 .779.2 1.06.558.28.358.439.844.439 1.35v2.713" stroke="#2F3043" stroke-width="2" stroke-linecap="round" stroke-linejoin="round"/>
</svg>
