<svg width="164" height="70" viewBox="0 0 164 70" fill="none" xmlns="http://www.w3.org/2000/svg">
    <path fill-rule="evenodd" clip-rule="evenodd" d="M60.338 21.017 17.429 68.655a4.068 4.068 0 0 1-5.745.3l-9.41-8.476a4.068 4.068 0 0 1-.3-5.745L44.883 7.096a4.068 4.068 0 0 1 5.745-.3l9.41 8.475a4.068 4.068 0 0 1 .3 5.746" fill="#2F3047"/>
    <path fill-rule="evenodd" clip-rule="evenodd" d="M16.58 54.058a2.454 2.454 0 1 0-3.286 3.648 2.454 2.454 0 0 0 3.285-3.648M22.673 47.294a2.454 2.454 0 1 0-3.285 3.647 2.454 2.454 0 0 0 3.285-3.647M28.765 40.53a2.454 2.454 0 1 0-3.285 3.647 2.454 2.454 0 0 0 3.285-3.647" fill="#FFC600"/>
    <path fill-rule="evenodd" clip-rule="evenodd" d="M88.882 12.43 56.843 67.965a4.068 4.068 0 0 1-5.557 1.491l-10.969-6.329a4.068 4.068 0 0 1-1.49-5.556L70.865 2.036a4.068 4.068 0 0 1 5.556-1.49l10.97 6.328a4.068 4.068 0 0 1 1.49 5.557" fill="#2F3047"/>
    <path fill-rule="evenodd" clip-rule="evenodd" d="M52.97 53.865a2.454 2.454 0 1 0-2.453 4.252 2.454 2.454 0 0 0 2.453-4.252M57.52 45.98a2.454 2.454 0 1 0-2.453 4.251 2.454 2.454 0 0 0 2.453-4.251M62.07 38.094a2.455 2.455 0 1 0-2.453 4.252 2.455 2.455 0 0 0 2.453-4.252" fill="#FFC600"/>
    <path fill-rule="evenodd" clip-rule="evenodd" d="m115.968 14.572-35.19 53.592a4.068 4.068 0 0 1-5.634 1.168l-10.585-6.95a4.068 4.068 0 0 1-1.168-5.634l35.19-53.593a4.068 4.068 0 0 1 5.634-1.168l10.586 6.951a4.068 4.068 0 0 1 1.167 5.634" fill="#2F3047"/>
    <path fill-rule="evenodd" clip-rule="evenodd" d="M77.726 53.865a2.455 2.455 0 1 0-2.695 4.104 2.455 2.455 0 0 0 2.695-4.104M82.722 46.256a2.454 2.454 0 1 0-2.694 4.103 2.454 2.454 0 0 0 2.694-4.103M87.719 38.646a2.455 2.455 0 1 0-2.695 4.104 2.455 2.455 0 0 0 2.695-4.104" fill="#FFC600"/>
    <path fill-rule="evenodd" clip-rule="evenodd" d="M159.53 70H95.417a4.068 4.068 0 0 1-4.068-4.068V53.268a4.068 4.068 0 0 1 4.068-4.068h64.113a4.068 4.068 0 0 1 4.068 4.068v12.664A4.068 4.068 0 0 1 159.53 70" fill="#2F3047"/>
    <path fill-rule="evenodd" clip-rule="evenodd" d="M105.693 59.6a2.454 2.454 0 1 0-4.908-.002 2.454 2.454 0 0 0 4.908.001M114.797 59.6a2.454 2.454 0 1 0-4.908-.002 2.454 2.454 0 0 0 4.908.001M123.9 59.6a2.454 2.454 0 1 0-4.908-.002 2.454 2.454 0 0 0 4.908.001" fill="#FFC600"/>
</svg>
