<svg width="63" height="100" viewBox="0 0 63 100" fill="none" xmlns="http://www.w3.org/2000/svg">
    <path fill-rule="evenodd" clip-rule="evenodd" d="M62.292 93.583V100l-.018-.018-6.113-6.399h6.131zM56.16 93.582H43.901l6.115 6.4.018.017.018-.017 6.108-6.4zM43.901 93.582H31.636l6.115 6.4.018.017.018-.017 6.114-6.4z" fill="#2F3043"/>
    <path fill-rule="evenodd" clip-rule="evenodd" d="M31.637 93.582h-12.26l6.115 6.4.018.017.018-.017 6.109-6.4zM19.377 93.582H7.112l6.114 6.4.018.017.019-.017 6.114-6.4zM.932 93.582v6.375l.024.025.018.017.018-.017 6.12-6.4H.933z" fill="#2F3043"/>
    <path fill-rule="evenodd" clip-rule="evenodd" d="M62.293 6.679v86.919H.928V6.678c0-2.345 1.21-4.41 3.039-5.595A6.631 6.631 0 0 1 7.607 0h48.01a6.662 6.662 0 0 1 5.442 2.81 6.643 6.643 0 0 1 1.234 3.869" fill="#2F3043"/>
    <path fill-rule="evenodd" clip-rule="evenodd" d="M51.06 44.522c0 10.742-8.708 19.45-19.45 19.45-10.74 0-19.449-8.708-19.449-19.45 0-10.741 8.708-19.449 19.45-19.449 10.741 0 19.449 8.708 19.449 19.45" fill="#FFC600"/>
    <path fill-rule="evenodd" clip-rule="evenodd" d="M38.48 53.764c-.4 0-.789-.213-.994-.589-1.739-3.181-3.643-3.872-5.443-4.145-2.295-.343-4.735 1.203-6.517 4.148a1.13 1.13 0 1 1-1.935-1.171c2.272-3.754 5.557-5.706 8.79-5.213 3.206.485 5.326 2.07 7.09 5.296a1.131 1.131 0 0 1-.991 1.674M28.38 42.512c-.29 0-.579-.11-.8-.331l-4.076-4.076a1.13 1.13 0 1 1 1.599-1.6l4.076 4.077a1.13 1.13 0 0 1-.8 1.93" fill="#2F3043"/>
    <path fill-rule="evenodd" clip-rule="evenodd" d="M24.302 42.512a1.13 1.13 0 0 1-.8-1.93l4.077-4.077a1.13 1.13 0 1 1 1.6 1.6l-4.077 4.076c-.22.221-.51.331-.8.331M38.919 42.512c-.29 0-.58-.11-.8-.331l-4.077-4.076a1.13 1.13 0 1 1 1.6-1.6l4.076 4.077a1.13 1.13 0 0 1-.8 1.93" fill="#2F3043"/>
    <path fill-rule="evenodd" clip-rule="evenodd" d="M34.842 42.512a1.13 1.13 0 0 1-.8-1.93l4.077-4.077a1.13 1.13 0 1 1 1.6 1.6L35.64 42.18c-.22.221-.51.331-.8.331" fill="#2F3043"/>
</svg>
