<svg width="53" height="52" viewBox="0 0 53 52" fill="none" xmlns="http://www.w3.org/2000/svg">
    <g clip-path="url(#eobrivqd1a)">
        <rect x="19.74" y="51.995" width="37.741" height="37.741" rx="7.665" transform="rotate(-120 19.74 51.995)" fill="#fff"/>
        <path fill-rule="evenodd" clip-rule="evenodd" d="m11.624 21.454.92-.531.12.207-.92.53.192.333-.179.104-.503-.871.18-.103.19.33zm-.18-.754.728-.42.112.193-1.098.634-.138-.239.619-.8-1.003.135-.138-.238 1.098-.634.112.192-.728.42.9-.12.091.157-.555.72zM27.065 20.098l-2.546-4.41-12.351 7.13 2.546 4.41 12.35-7.13zm-8.973 12.981 13.157-3.79-9.86 9.5 2.546 4.41 10.582-10.194-4.852-8.403-14.12 4.067 2.547 4.41z" fill="#EE2737"/>
        <path fill-rule="evenodd" clip-rule="evenodd" d="M28.233 13.282a2.767 2.767 0 0 1 3.778 1.02 2.767 2.767 0 0 1-1.006 3.782 2.767 2.767 0 0 1-3.778-1.02 2.767 2.767 0 0 1 1.006-3.782z" fill="#FFC600"/>
    </g>
    <defs>
        <clipPath id="eobrivqd1a">
            <rect x="19.74" y="51.995" width="37.741" height="37.741" rx="7.665" transform="rotate(-120 19.74 51.995)" fill="#fff"/>
        </clipPath>
    </defs>
</svg>
