<svg width="95" height="85" viewBox="0 0 95 85" fill="none" xmlns="http://www.w3.org/2000/svg">
    <path d="M47.712 48.97V3.287l45.47 15.73v45.682L47.711 48.97z" fill="#2F3047"/>
    <path d="M47.712 48.97V3.287l-45.47 15.73v45.682L47.71 48.97h.001z" fill="#1E1F30"/>
    <path d="M51.061 52.162a.431.431 0 0 1-.365-.202c-2.112-3.46-6.528-5.297-9.756-5.549-2.056-.152-3.707.311-4.523 1.28a.425.425 0 0 1-.74-.363c.652-3.113-1.385-6.38-2.654-8.05-2.22-2.938-5.317-5.222-7.197-5.343a.425.425 0 0 1-.215-.774c4.53-3.175 8.59-20.111 7.758-24.321a.425.425 0 0 1 .792-.274c2.213 4.429 5.45 7.131 9.625 8.038 6.554 1.424 13.708-1.98 18.241-5.635a.43.43 0 0 1 .369-.085.425.425 0 0 1 .287.245c1.449 3.335 2.217 4.702 5.813 3.55.142-.064.291-.112.444-.143a.425.425 0 0 1 .225.815l-.327.115c-.796.395-1.198 1.66-1.396 2.712-1.137 6.03 1.582 18.71 4.405 20.56a.432.432 0 0 1 .183.454.425.425 0 0 1-.365.327c-6.926.813-18.532 4.872-20.18 12.317a.435.435 0 0 1-.346.327h-.078v-.001zm-10.907-6.625c.274 0 .558 0 .848.032 3.182.242 7.478 1.959 9.892 5.174 2.324-6.985 12.83-10.92 19.76-11.952-1.264-1.466-2.472-4.543-3.333-8.566-.996-4.623-1.27-9.296-.721-12.2.121-.76.366-1.497.724-2.177-2.937.476-3.982-1.143-5.195-3.875-4.694 3.646-11.884 6.903-18.523 5.463-3.89-.845-7.01-3.142-9.29-6.852-.145 5.874-3.503 18.72-7.508 22.672 2.083.62 4.824 2.774 6.897 5.502 1.21 1.593 3.068 4.57 2.937 7.621a6.614 6.614 0 0 1 3.525-.841h-.013v-.001z" fill="#fff"/>
    <path d="M50.562 43.327a.422.422 0 0 1-.362-.202c-1.273-2.08-3.94-3.185-5.875-3.335-1.218-.089-2.177.172-2.647.728a.425.425 0 0 1-.741-.36c.284-1.354-.3-3.113-1.602-4.827-1.476-1.939-3.35-3.163-4.312-3.224a.421.421 0 0 1-.215-.77c2.552-1.789 5.248-12.076 4.706-14.808a.428.428 0 0 1 .28-.486.425.425 0 0 1 .516.212c1.342 2.68 3.296 4.314 5.816 4.864 3.979.86 8.335-1.212 11.096-3.442a.437.437 0 0 1 .37-.08.424.424 0 0 1 .286.245c.905 2.082 1.306 2.757 3.366 2.1.096-.044.199-.078.303-.1a.428.428 0 0 1 .228.819l-.198.065c-.327.177-.604.715-.764 1.55-.692 3.672.936 11.375 2.644 12.487a.426.426 0 0 1-.183.777c-4.22.493-11.286 2.938-12.285 7.454a.428.428 0 0 1-.346.327l-.081.006zm-6.714-4.406c.174 0 .353 0 .536.023 1.916.144 4.477 1.145 6.02 3.016.732-1.887 2.468-3.574 5.077-4.922a23.765 23.765 0 0 1 6.853-2.226c-1.782-2.422-2.986-9.33-2.354-12.692.067-.382.177-.755.327-1.113-1.632.15-2.284-.816-2.983-2.327-2.937 2.215-7.308 4.151-11.37 3.263a8.81 8.81 0 0 1-5.548-3.864c-.255 3.74-2.172 10.836-4.47 13.381 1.284.477 2.873 1.763 4.084 3.359.721.95 1.811 2.68 1.847 4.513a4.464 4.464 0 0 1 1.981-.41z" fill="#fff"/>
    <path d="M50.13 35.89a.424.424 0 0 1-.376-.203c-.537-.878-1.722-1.406-2.61-1.475a1.308 1.308 0 0 0-1.067.268.421.421 0 0 1-.51.108.427.427 0 0 1-.231-.47c.124-.578-.14-1.349-.718-2.11-.652-.854-1.485-1.416-1.883-1.441a.415.415 0 0 1-.379-.307.428.428 0 0 1 .164-.464c1.132-.793 2.385-5.577 2.144-6.795a.424.424 0 0 1 .796-.274c.604 1.208 1.478 1.958 2.611 2.187 1.514.327 3.456-.28 5.072-1.586a.427.427 0 0 1 .656.16c.411.946.519 1.136 1.305.88a.905.905 0 0 1 .189-.058.424.424 0 0 1 .226.816l-.076.026c-.052.036-.159.183-.234.572-.327 1.725.49 5.26 1.155 5.695a.424.424 0 0 1-.182.776c-2.083.245-5.223 1.45-5.634 3.361a.428.428 0 0 1-.346.327l-.072.007zm-3.182-2.537h.268a4.714 4.714 0 0 1 2.777 1.253c.9-1.745 3.391-2.773 5.35-3.149-.813-1.435-1.24-4.478-.98-5.9.015-.089.035-.177.06-.265-.575-.062-.904-.444-1.186-.979-1.42 1.012-3.452 1.844-5.355 1.43a4.353 4.353 0 0 1-2.422-1.47c-.229 1.773-.98 4.407-1.925 5.677a5.64 5.64 0 0 1 1.756 1.546c.454.57.762 1.243.897 1.959.247-.07.503-.104.76-.102z" fill="#fff"/>
    <path d="M51.06 52.163a.422.422 0 0 1-.42-.399L49.428 30.26 36.446 47.672a.422.422 0 1 1-.679-.506l13.678-18.332a.418.418 0 0 1 .46-.154.425.425 0 0 1 .303.382l1.287 22.67a.42.42 0 0 1-.398.447l-.037-.017z" fill="#fff"/>
    <path d="M25.865 33.938a.424.424 0 0 1-.075-.842l23.227-4.314L33.462 9.023a.425.425 0 1 1 .654-.526L50.107 28.81a.422.422 0 0 1-.254.678L25.93 33.931l-.066.007h.002z" fill="#fff"/>
    <path d="M71.62 39.516a.426.426 0 0 1-.175-.036L49.611 29.457a.427.427 0 0 1-.082-.724l21.669-16.395a.426.426 0 1 1 .511.679L50.61 28.98l21.192 9.725a.425.425 0 0 1-.18.81z" fill="#fff"/>
    <path d="M47.712 35.824v45.682l45.47-15.727V20.094l-45.47 15.73z" fill="#D60431"/>
    <path d="M47.712 35.824v45.682L2.242 65.779V20.094l45.469 15.73h.001z" fill="#FF002B"/>
    <path d="M43.355 67.73a.689.689 0 0 1-.213-.035l-9.738-3.398a.636.636 0 0 1-.092-1.2.637.637 0 0 1 .509-.002l9.733 3.395a.652.652 0 0 1-.209 1.24h.01zm0 4.677a.601.601 0 0 1-.213-.036l-21.083-7.35a.639.639 0 1 1 .417-1.2l21.078 7.35a.636.636 0 0 1-.209 1.236h.01zm41.742-8.325a1.26 1.26 0 0 1-1.266-1.264v-3.847a1.261 1.261 0 0 1 .852-1.194l3.91-1.35a1.27 1.27 0 0 1 1.678 1.2v3.843a1.272 1.272 0 0 1-.853 1.199l-3.893 1.344c-.138.047-.282.07-.428.069zm0-5.101v3.837l3.887-1.348v-3.834l-3.887 1.344z" fill="#fff"/>
</svg>
