<svg width="49" height="48" viewBox="0 0 49 48" fill="none" xmlns="http://www.w3.org/2000/svg">
    <g clip-path="url(#5nk6h0lqja)">
        <rect x=".063" width="48" height="48" rx="8" fill="#2F3043"/>
        <path fill-rule="evenodd" clip-rule="evenodd" d="M15.475 12.491a6.579 6.579 0 0 1 3.77-1.586l.006-.004c4.098-.204 7.054 3.435 9.039 7.03l2.558 3.813-4.353 1.56a20.368 20.368 0 0 1-4.716.961 7.978 7.978 0 0 1-7.978-4.64c-1.071-2.383-.358-5.276 1.674-7.134zm9.825 7.255c-1.098-1.606-3.665-5.229-5.811-5.128h-.017c-.586-.027-.991.345-1.396.716-2.009 1.861-.807 5.42 3.682 5.23a11.82 11.82 0 0 0 3.542-.818z" fill="#FFC600"/>
        <path fill-rule="evenodd" clip-rule="evenodd" d="M26.59 17.27c2.336-4.38 5.881-9.675 10.568-9.86a5.577 5.577 0 0 1 4.228 1.363 8.128 8.128 0 0 1 2.548 8.49 9.916 9.916 0 0 1-9.04 6.026c-2.1.09-4.2-.2-6.196-.86l-4.225-1.356 2.116-3.803zm10.785-6.147h-.003.007-.004zm0 0c-2.938.058-5.736 4.782-7.281 7.391l-.271.456c1.588.659 3.307.936 5.022.81 6.056-.318 7.458-5.517 4.445-7.987a3.28 3.28 0 0 0-1.915-.67z" fill="#FFC600"/>
        <path d="m8.143 33.211 5.039 27.11 37.799-.084.053-27.662-42.89.636z" fill="#E42737"/>
        <path d="m8.143 33.211.322 1.57 42.516 3.442.053-5.648-42.89.636z" fill="#CE1D34"/>
        <path d="M3.942 22.501 6.58 33.334l46.4-.672.454-10.308-49.492.147z" fill="#E42737"/>
        <path d="m25.206 21.885 4.73 38.395 5.843.064-1.417-38.445-9.156-.014z" fill="#FFC600"/>
        <path d="M11.173 26.827a2.725 2.725 0 0 0-2.819 2.581 2.782 2.782 0 0 0-2.701-2.949c1.476.067 2.879-1.101 2.946-2.574a2.758 2.758 0 0 0 2.574 2.942z" fill="#fff"/>
    </g>
    <defs>
        <clipPath id="5nk6h0lqja">
            <rect x=".063" width="48" height="48" rx="8" fill="#fff"/>
        </clipPath>
    </defs>
</svg>
